<?xml version="1.0" standalone="no"?>
<!DOCTYPE svg PUBLIC "-//W3C//DTD SVG 20010904//EN"
 "http://www.w3.org/TR/2001/REC-SVG-20010904/DTD/svg10.dtd">
<svg version="1.0" xmlns="http://www.w3.org/2000/svg"
 width="700.000000pt" height="700.000000pt" viewBox="0 0 700.000000 700.000000"
 preserveAspectRatio="xMidYMid meet">
<metadata>
Created by potrace 1.14, written by Peter Selinger 2001-2017
</metadata>
<g transform="translate(0.000000,700.000000) scale(0.100000,-0.100000)"
fill="#000000" stroke="none">
<path d="M2058 6440 c-140 -29 -208 -53 -333 -117 -283 -144 -517 -406 -618
-689 -22 -60 -55 -201 -71 -297 -6 -35 -25 -135 -31 -167 -3 -14 -12 -61 -20
-105 -7 -44 -27 -154 -44 -245 -17 -91 -32 -176 -35 -190 -2 -14 -23 -126 -46
-250 -46 -250 -48 -261 -54 -292 -2 -13 -11 -61 -20 -108 -8 -47 -18 -101 -21
-120 -3 -19 -15 -80 -25 -135 -11 -55 -44 -237 -75 -405 -30 -168 -60 -327
-65 -355 -19 -96 -41 -216 -46 -243 -9 -51 -44 -247 -49 -272 -3 -14 -7 -38
-10 -55 -3 -16 -10 -52 -15 -80 -5 -27 -12 -61 -14 -75 -2 -14 -29 -160 -60
-325 -30 -165 -57 -311 -59 -325 -3 -14 -8 -43 -12 -65 -4 -22 -9 -49 -11 -60
-2 -11 -18 -96 -35 -190 -17 -93 -33 -180 -35 -192 -2 -13 -6 -33 -8 -45 -2
-13 -14 -75 -26 -138 -12 -63 -24 -126 -26 -140 -3 -14 -9 -50 -14 -80 -6 -30
-13 -68 -15 -85 -3 -16 -8 -36 -10 -43 -4 -10 451 -12 2353 -9 1296 1 2373 6
2392 11 235 52 377 116 550 247 266 201 432 476 485 799 3 19 14 80 25 135 18
97 23 120 35 195 3 19 14 80 25 135 10 55 24 127 29 160 6 33 13 71 16 85 3
14 16 86 29 160 14 74 48 259 76 410 28 151 53 289 56 305 12 63 33 181 38
205 3 14 12 63 20 110 8 47 17 95 20 106 2 12 7 39 10 60 4 22 20 109 36 194
30 156 34 182 46 255 3 22 7 42 9 45 2 3 6 24 9 46 4 22 8 51 11 64 3 14 9 50
15 80 6 30 12 65 14 76 2 12 7 37 10 55 3 19 8 45 11 59 3 14 7 36 10 50 2 14
7 39 9 55 3 17 8 40 10 51 2 12 7 38 10 58 3 21 12 70 20 109 8 40 17 90 21
112 9 54 14 81 19 108 34 177 58 308 62 332 2 17 8 56 12 87 31 211 -32 457
-159 623 -125 165 -277 258 -524 322 -16 4 -883 8 -1925 9 -1799 2 -1899 1
-1982 -16z"/>
</g>
</svg>
